<svg xmlns="http://www.w3.org/2000/svg" viewBox="0 0 120 120" role="presentation" aria-hidden="true">
  <title>Limited offer</title>
  <defs>
    <linearGradient id="o-clay" x1="14%" y1="6%" x2="86%" y2="96%">
      <stop offset="0" stop-color="#F2AC9B"/><stop offset=".42" stop-color="#D8695C"/><stop offset="1" stop-color="#AE3223"/>
    </linearGradient>
    <linearGradient id="o-clay-back" x1="16%" y1="8%" x2="84%" y2="94%">
      <stop offset="0" stop-color="#FFE4DC"/><stop offset="1" stop-color="#F0B3A4"/>
    </linearGradient>
    <linearGradient id="o-spark" x1="0%" y1="0%" x2="100%" y2="100%">
      <stop offset="0" stop-color="#FFD9CE"/><stop offset="1" stop-color="#EE9481"/>
    </linearGradient>
    <radialGradient id="o-shadow" cx="50%" cy="50%" r="50%">
      <stop offset="0" stop-color="#8A4034" stop-opacity=".24"/><stop offset="1" stop-color="#8A4034" stop-opacity="0"/>
    </radialGradient>
  </defs>
  <ellipse cx="60" cy="104" rx="36" ry="8.5" fill="url(#o-shadow)"/>
  <g transform="rotate(-12 60 58)">
    <path d="M30 24h27a10 10 0 0 1 7.1 3l25.4 25.4a10 10 0 0 1 0 14.1L70.6 84.4a10 10 0 0 1-14.1 0L31 59a10 10 0 0 1-3-7.1V26a2 2 0 0 1 2-2Z"
          transform="translate(7 5)" fill="url(#o-clay-back)" opacity=".8"/>
    <path d="M30 24h27a10 10 0 0 1 7.1 3l25.4 25.4a10 10 0 0 1 0 14.1L70.6 84.4a10 10 0 0 1-14.1 0L31 59a10 10 0 0 1-3-7.1V26a2 2 0 0 1 2-2Z"
          fill="url(#o-clay)"/>
    <path d="M33 28h22a6 6 0 0 1 0 12H33a4 4 0 0 1-4-4v-4a4 4 0 0 1 4-4Z" fill="#FFFFFF" opacity=".2"/>
    <circle cx="47" cy="41" r="8.4" fill="#8E2718" opacity=".55"/>
    <circle cx="47" cy="41" r="8.4" fill="none" stroke="#FFD9CE" stroke-width="2.4" opacity=".55"/>
    <circle cx="45.2" cy="38.9" r="2.6" fill="#FFFFFF" opacity=".3"/>
  </g>
  <g>
    <path d="M97 22c.5 4.6 2 6.1 6.6 6.6-4.6.5-6.1 2-6.6 6.6-.5-4.6-2-6.1-6.6-6.6 4.6-.5 6.1-2 6.6-6.6Z" fill="url(#o-spark)"/>
    <path d="M22 40c.4 3.4 1.5 4.5 4.9 4.9-3.4.4-4.5 1.5-4.9 4.9-.4-3.4-1.5-4.5-4.9-4.9 3.4-.4 4.5-1.5 4.9-4.9Z" fill="url(#o-spark)" opacity=".75"/>
  </g>
</svg>
